With: Jeremy Irvine, Emily Watson en David Thewlis

'War Horse' volgt een jongeman genaamd Albert (Jeremy Irvine) en zijn paard Joey. Hun band wordt verbroken wanneer Joey verkocht wordt aan het leger en meegenomen wordt voor het gebruik in de Eerste Wereldoorlog. Ondanks dat Albert nog te jong is om zich in te schrijven voor het leger, besluit hij toch naar Frankrijk te gaan om zijn vriend te redden.

Young Albert enlists to serve in World War I after his beloved horse is sold to the cavalry. Albert's hopeful journey takes him out of England and across Europe as the war rages on. 

------------------------ Dutch Friends ------------------------
---------------------------------------------------------------
- Bezoek ook eens mijn vrienden op:  http://www.Film-Test.nl --
----- voor mijn Nederlandse Sync. ondertitels ---- en meer ----
------- http://www.Film-Test.nl ---- voor Films en meer -------
---------------------------------------------------------------

General:

Complete name                    : War HorseWar Horse.avi
Format                           : AVI
Format/Info                      : Audio Video Interleave
File size                        : 2.49 GiB
Duration                         : 2h 26mn
Overall bit rate                 : 2 436 Kbps

Video:

Format                           : MPEG-4 Visual
Format profile                   : Simple@L3
Format settings, BVOP            : No
Format settings, QPel            : No
Format settings, GMC             : No warppoints
Format settings, Matrix          : Default (H.263)
Codec ID                         : XVID
Codec ID/Hint                    : XviD
Duration                         : 2h 26mn
Bit rate                         : 1 977 Kbps
Width                            : 720 pixels
Height                           : 304 pixels
Display aspect ratio             : 2.35:1
Frame rate                       : 23.976 fps
Color space                      : YUV
Chroma subsampling               : 4:2:0
Bit depth                        : 8 bits
Scan type                        : Progressive
Compression mode                 : Lossy
Bits/(Pixel*Frame)               : 0.377
Stream size                      : 2.02 GiB (81%)
Writing library                  : XviD 1.1.2 (UTC 2006-11-01)

Audio:

Format                           : AC-3
Format/Info                      : Audio Coding 3
Mode extension                   : CM (complete main)
Codec ID                         : 2000
Duration                         : 2h 26mn
Bit rate mode                    : Constant
Bit rate                         : 448 Kbps
Channel(s)                       : 6 channels
Channel positions                : Front: L C R, Side: L R, LFE
Sampling rate                    : 48.0 KHz
Bit depth                        : 16 bits
Compression mode                 : Lossy
Stream size                      : 469 MiB (18%)
Alignment                        : Aligned on interleaves
Interleave, duration             : 32 ms (0.77 video frame)


